<svg width="37" height="57" viewBox="0 0 37 57" fill="none" xmlns="http://www.w3.org/2000/svg">
<path d="M33.1196 49.4196C33.2663 49.0316 33.4262 48.6516 33.4929 48.2369C33.5596 47.8089 33.4929 47.3943 33.3596 46.9863C33.0662 46.0236 32.1462 45.3543 31.3996 44.7609C30.4796 44.0303 29.3862 43.6009 28.3329 43.0729C26.8396 42.3156 26.1729 41.2729 26.6662 39.6676C26.7996 39.3369 26.9329 39.0863 26.5863 38.9249C24.4129 37.9023 23.2795 35.0289 22.5729 32.9116C21.9062 30.9156 21.1195 27.9449 22.1729 25.9329C24.5462 25.7103 26.2396 23.3356 25.8929 21.0023C25.5329 18.6769 23.8129 17.377 21.5729 17.301C21.4929 16.645 21.9862 16.1849 22.4662 15.7049C22.9996 15.1849 23.4262 14.6689 23.8128 14.0289C24.6928 12.5183 24.8529 10.7449 24.5329 9.05427C23.8662 5.59561 20.7195 3.16095 18.2795 0.902288C18.0795 0.707621 17.6929 0.703598 17.4929 0.911598C15.0929 3.23693 12.4009 5.5236 11.5009 8.87826C11.0475 10.5689 11.3449 12.3316 12.1102 13.8783C12.4476 14.5556 12.9276 15.1236 13.4662 15.6436C14.0129 16.1556 14.6529 16.6423 14.5729 17.3796C12.4342 17.4983 10.7596 18.7249 10.3703 20.9503C9.94625 23.3609 11.7022 25.8503 14.1729 26.0223C15.2795 28.0249 14.5329 30.9809 13.9329 33.0076C13.2956 35.1383 12.1756 38.0489 10.0476 39.1089C9.7076 39.2796 9.87961 39.6463 9.99161 39.8556C10.4796 41.3263 10.0009 42.3236 8.65554 43.1476C7.56621 43.8129 6.35815 44.2276 5.36882 45.0529C4.67282 45.6329 3.88619 46.2356 3.53952 47.1023C3.35819 47.5503 3.30488 47.9716 3.33288 48.4489C3.36488 48.9223 3.57289 49.3396 3.74356 49.7676C2.88089 49.6743 2.0116 49.9796 1.3196 50.5303C0.190269 51.4276 0.102259 53.1249 0.508925 54.3956C1.06759 56.1343 3.98482 56.3116 5.43549 56.4596C9.81949 56.9089 27.1062 56.6663 31.4128 56.1876C32.9195 56.0196 35.7862 55.7916 36.4395 54.0649C37.3062 51.7623 35.5329 49.0156 33.1196 49.4196Z" fill="#F6F3EA"/>
</svg>
