<svg width="43" height="57" viewBox="0 0 43 57" fill="none" xmlns="http://www.w3.org/2000/svg">
<path d="M1.07953 24.5091C4.61286 26.5117 6.83955 31.9331 7.23955 36.0637C3.90622 36.2491 0.812861 38.4424 0.479528 42.0531C0.319528 43.7891 0.679554 46.0024 2.30622 47.0036C2.43955 47.0864 2.57297 47.1515 2.71963 47.2181C1.39963 48.5848 0.906299 50.6651 1.51963 52.9755C2.55963 56.8276 6.45294 56.7479 9.69294 56.4728C9.93294 57.1224 33.6262 56.7328 33.8129 56.2009C37.1729 56.4088 40.6529 56.3599 41.8929 52.5224C42.6529 50.2036 42.0129 48.1343 40.5729 46.7971C40.7196 46.7264 40.853 46.6571 40.9863 46.5691C42.5863 45.5344 42.9063 43.3117 42.6929 41.5824C42.2796 37.9744 39.1329 35.8517 35.8129 35.7424C36.1195 31.6051 38.2129 26.1344 41.7062 24.0531C41.7862 24.0051 41.8662 23.9491 41.9329 23.8851C42.4129 23.4984 42.4796 22.9251 42.2929 22.4424C42.1596 21.9957 41.813 21.6251 41.253 21.5571C41.1996 21.5531 41.1463 21.5464 41.0929 21.5464C41.0796 21.5451 41.0796 21.5437 41.053 21.5437C39.053 21.5624 37.053 21.5597 35.053 21.3997C34.3863 17.0731 31.5996 13.7131 27.5062 12.6544C28.9729 10.7464 29.6662 8.39306 29.2129 5.8344C28.5729 2.11707 24.6529 0.831737 21.1329 0.873071C17.6129 0.910404 13.9863 2.31839 13.1596 6.01173C12.5996 8.49573 13.4662 10.9064 15.0129 12.7957C10.9462 13.9437 8.23958 17.3651 7.66625 21.7077C5.66625 21.9117 3.67958 21.9597 1.66625 21.9837C1.65291 21.9851 1.63955 21.9877 1.63955 21.9891C1.58622 21.9931 1.53286 21.9971 1.47953 22.0051C0.919528 22.0851 0.586299 22.4611 0.452965 22.9117C0.279632 23.3997 0.359554 23.9704 0.839554 24.3464C0.919554 24.4091 0.999528 24.4624 1.07953 24.5091Z" fill="#F6F3EA"/>
</svg>
