<svg width="43" height="57" viewBox="0 0 43 57" fill="none" xmlns="http://www.w3.org/2000/svg">
<path d="M38.3467 48.529C38.5734 47.7342 38.8934 47.029 38.6668 46.077C38.4001 44.9942 37.3468 44.2196 36.5202 43.5676C35.5468 42.7956 34.4001 42.3276 33.2935 41.7756C31.7068 40.9836 30.9201 39.9263 31.4001 38.2263C31.5734 37.6676 31.6534 37.3716 31.1734 37.209C30.5068 36.9863 29.5735 35.8916 29.2935 35.2543C29.0268 34.6196 28.9335 33.9036 28.8268 33.2316C28.5068 31.1196 28.4134 28.9596 28.3467 26.8276C28.2801 25.017 28.2534 23.1996 28.3334 21.3876C28.3601 20.8063 28.4401 20.2663 28.5467 19.6956C28.7467 18.6383 28.9201 17.1263 29.6801 16.289C31.2534 16.2743 32.8135 16.2596 34.3868 16.1223C34.6135 16.1036 34.9068 15.957 34.9334 15.6916C35.2001 13.7116 35.2268 11.6956 35.4535 9.7103C35.7468 7.16497 36.0268 3.9983 37.5202 1.80763C37.7868 1.37963 37.8134 0.770304 37.1467 0.743637C35.0267 0.528971 32.9068 0.615624 30.7734 0.64629C30.5601 0.648957 30.1602 0.750292 30.0535 1.24762C29.7868 2.45296 29.5068 3.66096 29.3601 4.8863C28.8935 4.89163 28.4268 4.8903 27.9601 4.8583C28.0535 3.73697 28.1734 2.61696 28.4134 1.5183C28.4667 1.30096 28.4001 1.12496 28.2801 0.999627C28.1867 0.882293 28.0402 0.799635 27.8535 0.791635C25.8802 0.722302 23.9068 0.928957 21.9334 0.74629C21.6534 0.719624 21.4801 0.870296 21.4134 1.06896C21.3867 1.14363 21.3601 1.23029 21.3601 1.33163C21.3868 2.52763 21.5335 3.77963 21.3202 4.9703C21.2268 4.96896 19.9468 4.98496 19.9202 4.98496C19.6935 3.79963 19.8134 2.54496 19.8001 1.34896C19.8001 1.24763 19.8401 0.696969 19.2134 0.775636C17.2534 1.0023 15.2761 0.840965 13.3081 0.954298C12.6094 0.966298 12.7042 1.47964 12.7588 1.6943C13.0308 2.78764 13.1721 3.90363 13.2935 5.0223C12.8281 5.06497 12.3602 5.07829 11.8922 5.08363C11.7135 3.85963 11.4121 2.65964 11.1121 1.46097C11.0668 1.27964 10.9574 0.870303 10.3788 0.875636C8.25343 0.891636 6.1321 0.852959 4.01743 1.11563C3.34677 1.22896 3.36815 1.85163 3.66548 2.18763C5.15881 4.28496 5.50808 7.31297 5.86808 9.77564C6.16542 11.8436 6.23617 13.9476 6.5535 16.0103C6.59617 16.2743 6.88274 16.4143 7.11874 16.4303C8.6894 16.5303 10.2561 16.5103 11.8281 16.4903C12.5521 17.2583 12.7481 18.6236 12.9747 19.609C13.1147 20.2143 13.2254 20.7916 13.2734 21.409C13.4161 23.2663 13.4135 25.1356 13.3975 26.997C13.3802 29.0503 13.3121 31.1103 13.0894 33.1543C13.0094 33.885 12.9001 34.6276 12.6734 35.3303C12.4494 36.0276 11.4922 37.1903 10.8042 37.437C10.3215 37.6103 10.4188 38.093 10.6042 38.461C11.0828 40.0076 10.5201 41.0236 9.09074 41.881C7.92407 42.5783 6.65348 43.0356 5.59881 43.9156C4.83881 44.549 3.95616 45.2316 3.60949 46.1994C3.43749 46.6863 3.35882 47.1836 3.44282 47.7008C3.51216 48.13 3.6894 48.5248 3.84673 48.9264C2.92406 48.854 2.00805 49.1915 1.26939 49.7822C0.0453869 50.7571 -0.0532537 52.6232 0.39608 53.9994C1.00808 55.8811 4.1041 56.0836 5.6841 56.2514C10.8801 56.7983 31.5335 56.5232 36.7202 55.9008C38.4268 55.6967 41.2134 55.4128 41.9467 53.5327C42.9334 51.0327 40.8934 48.1743 38.3467 48.529Z" fill="#F6F3EA"/>
</svg>
