<svg width="41" height="62" viewBox="0 0 41 62" fill="none" xmlns="http://www.w3.org/2000/svg">
<path d="M2.58719 51.645C2.73386 51.7343 2.88045 51.809 3.04045 51.877C1.82712 53.093 1.36053 54.969 1.92053 57.0677C2.85386 60.5263 6.37381 60.429 9.26714 60.1743C10.0271 62.2597 32.1071 62.0757 32.8404 59.909C35.8538 60.1023 39.0005 60.085 40.1205 56.6397C40.8005 54.5357 40.2004 52.669 38.8804 51.4783C39.0404 51.4063 39.1871 51.3263 39.3338 51.2317C40.7471 50.3077 41.0138 48.3223 40.8404 46.7837C40.5071 43.873 38.1738 42.0517 35.5338 41.6517C37.1071 39.7997 38.5204 37.869 39.3471 35.505C40.3738 32.5823 40.0938 28.957 39.0804 26.0703C37.1338 20.5263 30.2405 16.3343 24.4272 16.073C24.3872 15.0823 24.4139 14.0904 24.3872 13.0997C26.0539 13.0784 27.7205 13.165 29.3872 13.0677C29.6272 13.053 29.8271 12.9783 29.9738 12.8703C29.9871 12.865 30.0005 12.8597 30.0005 12.8517C30.0271 12.837 30.0538 12.825 30.0671 12.809C30.3338 12.6237 30.5205 12.3303 30.5205 11.913C30.5339 10.2677 30.6138 8.61966 30.6005 6.97033C30.6005 6.58633 30.4405 6.30635 30.2005 6.12635C30.0271 5.95435 29.7738 5.841 29.4404 5.84367C27.8804 5.86367 26.3205 5.87969 24.7605 5.89702C24.7872 4.32902 24.8671 2.75567 24.8671 1.18101C24.8538 0.643672 24.5472 0.307692 24.1605 0.167692C24.1472 0.163692 24.1471 0.162351 24.1338 0.159684C24.1338 0.158351 24.1338 0.157013 24.1338 0.15568C24.0005 0.10368 23.8538 0.0690107 23.7071 0.0530107C22.8938 -0.021656 22.0671 0.0676734 21.2404 0.0823401C20.8538 0.0903401 19.9205 0.0996917 19.5205 0.101025C18.7072 0.105025 17.8805 0.0343531 17.0539 0.12902C16.9072 0.147686 16.7738 0.184996 16.6404 0.23833C16.6404 0.23833 16.6272 0.239668 16.6272 0.243668C16.6272 0.246335 16.6138 0.250344 16.6005 0.253011C16.2271 0.401011 15.9205 0.743673 15.9338 1.28234C15.9605 2.85567 16.0805 4.42368 16.1338 5.99435C14.5738 6.01302 13.0139 6.03034 11.4539 6.04901C11.1205 6.05167 10.8805 6.16767 10.6938 6.34634C10.4672 6.53167 10.3205 6.81436 10.3205 7.19836C10.3472 8.84769 10.4671 10.4943 10.5071 12.1397C10.5204 12.553 10.7205 12.845 10.9872 13.021C11.0005 13.0397 11.0271 13.0504 11.0404 13.0624C11.0538 13.0717 11.0671 13.0783 11.0804 13.0823C11.2271 13.185 11.4271 13.257 11.6671 13.2677C13.3338 13.3277 15.0005 13.2037 16.6671 13.1877C16.6671 14.177 16.7204 15.1677 16.7071 16.157C10.7204 16.537 4.44048 20.9317 2.26714 26.4837C1.14714 29.3757 1.30709 33.0117 2.21376 35.9223C2.94709 38.2477 4.50709 40.189 6.14709 41.9863C3.53376 42.445 1.24045 44.321 0.973783 47.233C0.827116 48.7743 1.14719 50.753 2.58719 51.645Z" fill="#F6F3EA"/>
</svg>
