<svg width="46" height="60" viewBox="0 0 46 60" fill="none" xmlns="http://www.w3.org/2000/svg">
<path d="M45.0816 55.1249C44.5456 53.8181 43.0417 53.2727 41.7643 53.8113C41.3697 53.977 40.9643 53.7265 41.027 53.0571C41.747 46.3677 36.7363 41.853 31.8389 38.1943C29.3069 36.3023 26.8576 34.477 25.1629 31.741C24.3216 30.3837 23.5403 28.9317 22.8443 27.493C22.2709 26.3063 21.747 25.0663 21.8323 23.7223C21.9043 23.2943 22.2363 23.0583 22.5549 23.1597C24.5869 23.793 26.8935 23.249 28.9029 22.765C29.0589 22.725 29.2376 22.7383 29.4656 22.905C31.2176 24.3783 33.7709 28.357 36.4736 26.7343C36.4896 26.725 36.5042 26.717 36.5189 26.7077C39.5949 24.8277 39.6349 20.3317 36.8496 18.0463C36.8003 18.005 36.7522 17.9664 36.7069 17.9277C34.8082 16.3317 32.9882 14.637 31.1522 12.969C29.5015 11.4677 27.887 9.87835 26.1096 8.52502C24.351 7.18635 22.2109 5.89168 19.9176 6.42768C19.8122 6.45035 19.5709 6.48634 19.3563 6.28367C17.1243 4.29834 14.7229 -0.0336574 11.5855 0.785009L12.959 5.31035C12.9963 5.49702 12.9589 5.87034 12.5802 5.99567C8.67621 7.54634 5.55763 11.269 3.53763 14.8583C1.86963 17.8303 0.776323 20.7743 0.864323 24.2317C0.940323 27.2797 1.29632 30.689 2.39766 33.553C3.27766 35.841 4.67896 37.9157 5.5043 40.2183C6.21496 42.1997 6.67093 44.285 7.13893 46.321C7.45627 47.6983 7.68953 49.0915 7.90287 50.489C8.05887 51.5113 8.34024 52.7754 8.04024 53.7863C7.87757 54.1994 7.62556 54.3129 7.3349 54.1983C6.0109 53.6727 4.30024 54.3342 3.97891 55.8207C3.74157 56.9077 3.83232 58.1087 4.89232 58.6394C6.92699 59.6557 9.56831 59.6478 11.787 59.6942C15.491 59.7727 33.7402 59.5822 37.4362 59.4061C39.6189 59.3025 42.4829 59.3238 44.4163 58.1327C45.3963 57.5301 45.4976 56.1394 45.0816 55.1249Z" fill="#F6F3EA"/>
</svg>
